<?xml version="1.0" encoding="utf-8"?>
<!-- Generator: Adobe Illustrator 16.0.0, SVG Export Plug-In . SVG Version: 6.00 Build 0)  -->
<!DOCTYPE svg PUBLIC "-//W3C//DTD SVG 1.1//EN" "http://www.w3.org/Graphics/SVG/1.1/DTD/svg11.dtd">
<svg version="1.1" id="Layer_1" xmlns="http://www.w3.org/2000/svg" xmlns:xlink="http://www.w3.org/1999/xlink" x="0px" y="0px"
	 width="550px" height="400px" viewBox="0 0 550 400" enable-background="new 0 0 550 400" xml:space="preserve">
<path fill-rule="evenodd" clip-rule="evenodd" d="M526.8,37.45h4.65v5.35h-15.4c3.967,1,8.7,2.417,14.2,4.25l-2.75,5.55
	c-4.8-1.8-9.95-3.583-15.45-5.35l2.4-4.45H502.9l2.699,4.35l-14.649,5.7c-0.9-1.667-1.983-3.533-3.25-5.6
	c4.366-1.333,8.717-2.817,13.05-4.45H486.6v-5.35h4.801V9.5H526.8V37.45z M520.45,14.85h-22.8v2.65h22.8V14.85z M520.45,21.45h-22.8
	v2.65h22.8V21.45z M497.65,37.45h22.8V34.8h-22.8V37.45z M497.65,30.8h22.8v-2.65h-22.8V30.8z M516.75,72.7V80h13.1v5.7h-9.8
	c2.267,6.4,6.134,12.1,11.601,17.1c-1.334,1.934-2.65,4.083-3.95,6.45c-1.233-1.267-2.384-2.667-3.45-4.2v4.6h-7.5v7.65h-6v-7.65
	h-7.3v-4.8c-1.167,1.733-2.434,3.4-3.8,5c-0.934-1.434-2.051-3.15-3.351-5.15v12.55H490.9V97.3c-1,1.7-2.017,3.3-3.051,4.8
	c-0.333-2.733-0.816-5.567-1.449-8.5c2.399-4.467,4.866-11.434,7.399-20.9l5.851,1.45c-1.034,3.9-2.15,7.517-3.351,10.85v18.5
	c4.867-5.1,8.483-11.033,10.851-17.8h-8.25V80h11.85v-7.3H516.75z M530.85,144.65H511.6c-0.733,1.733-1.416,3.25-2.05,4.55h18.9
	v32.7h-5.75v-2.4H495.35v2.4h-5.75v-32.7h12.7c0.533-1.434,1.084-2.95,1.65-4.55H487.1v-5.05h43.75V144.65z M523.55,104
	c-2.733-4.2-5-9.367-6.8-15.5V104H523.55z M510.75,104V88.25c-1.434,5.8-3.667,11.05-6.7,15.75H510.75z M512.7,162.45h-7.65v3.7
	h7.65V162.45z M518.5,154.2v20.3h4.2v-20.3H518.5z M512.7,154.2h-7.65v3.7h7.65V154.2z M495.35,154.2v20.3h4.051v-20.3H495.35z
	 M505.05,174.5h7.65v-3.8h-7.65V174.5z M484.5,33.6h-43.75v-6.75h43.75V33.6z M420.8,28.5v14.6c0,2.867-0.717,5.017-2.149,6.45
	c-1.5,1.434-3.7,2.15-6.601,2.15h-8.25c-0.399-2.233-0.95-4.517-1.649-6.85c2.866,0.233,5.267,0.35,7.199,0.35
	c1.801,0,2.983-0.35,3.551-1.05c0.5-0.733,0.75-1.683,0.75-2.85V25.65c3.666-2.5,7.883-5.5,12.649-9h-31.05v-6.4h41.55v6.3
	L420.8,28.5z M408.15,85.85h-6.45v7.85h6.45V85.85z M421.6,91.6c2.167,2.6,4.483,5.75,6.95,9.45l-5.7,3.8
	c-2.267-3.733-4.433-6.95-6.5-9.65L421.6,91.6z M414.45,79.9v8.9c2.399-4.1,4.717-9.5,6.95-16.2l6.3,1.65
	c-0.7,2.067-1.417,4.05-2.15,5.95h11.7l-0.55,26.1c-0.066,2.833-0.3,4.784-0.7,5.85c-0.4,1.167-1,2.083-1.8,2.75
	c-0.834,0.767-2,1.267-3.5,1.5c-1.5,0.267-4.733,0.4-9.7,0.4c-0.467-2.7-1.05-4.983-1.75-6.85c2.233,0.167,4.616,0.25,7.15,0.25
	c0.733,0,1.366-0.083,1.899-0.25c0.5-0.2,0.917-0.434,1.25-0.7c0.367-0.4,0.601-0.8,0.7-1.2c0.134-0.4,0.217-2.267,0.25-5.6l0.3-9.3
	c0.033-2.867,0.05-5.183,0.05-6.95h-7.899c-0.967,2.133-2.033,4.167-3.2,6.1c-1.434-0.9-3.2-1.816-5.3-2.75v27h-6.3v-3.25h-6.45v3.5
	h-6.351V79.9h4.801c0.866-2.9,1.466-5.267,1.8-7.1l6.8,1l-2.05,6.1H414.45z M444.95,75.2h37.5v24h-6.55v-3.1H451.35
	c-0.199,7.967-2.3,15.033-6.3,21.2c-1.833-2.333-3.467-4.25-4.899-5.75c3.199-4.4,4.8-11.133,4.8-20.2V75.2z M475.9,90v-8.7h-24.4
	V90H475.9z M372.85,15.95H361.5c-1.833,2.566-3.684,5-5.55,7.3c1.333-0.067,4.2-0.183,8.6-0.35c-0.899-1.433-1.633-2.6-2.2-3.5
	l4.551-2.6c2.066,2.867,4.416,6.333,7.05,10.4l-4.9,3.2L367.6,28l-8.55,0.35c-3.934,0.2-6.25,0.367-6.95,0.5
	c-0.733,0.066-1.583,0.217-2.55,0.45l-1.899-5.25c1.699-0.867,3.983-3.566,6.85-8.1h-6.8v-5.6h25.149V15.95z M380.4,12.75v29h-6.051
	v-29H380.4z M383.65,43.65V8.4h6.3v36.95c0,2.233-0.483,3.933-1.45,5.1c-0.934,1.2-2.517,1.85-4.75,1.95
	c-2.167,0.067-4.434,0.1-6.8,0.1c-0.233-1.333-0.783-3.45-1.65-6.35c2.601,0.033,4.584,0.05,5.95,0.05
	C382.85,46.2,383.65,45.35,383.65,43.65z M371.35,39.6h-7.899v4.55l9.3-0.7l-0.35,5.95c-9.301,0.633-17.534,1.267-24.7,1.9l-0.4-6.2
	l10.15-0.5v-5h-8.7V34h8.7v-4.45h6V34h7.899V39.6z M343.5,13.8l-18.4,0.6c-0.267,0.8-0.55,1.567-0.85,2.3h18.05v3.9h-19.75
	c-0.366,0.8-0.783,1.566-1.25,2.3h24.55v4.15h-27c-0.466,0.667-0.966,1.35-1.5,2.05h23.9v23.55h-6.15v-1.7H315.15v1.7h-6.301V38.4
	c-1.699,1.533-3.533,3.05-5.5,4.55c-0.733-2.367-1.566-4.567-2.5-6.6c4.434-2.7,8.101-5.8,11-9.3h-10.8V22.9h13.75
	c0.467-0.733,0.9-1.5,1.3-2.3H304.45v-3.9h13.35c0.233-0.667,0.467-1.383,0.7-2.15l-14.45,0.35c-0.166-1.7-0.434-3.3-0.8-4.8
	c15.134-0.1,28.233-0.467,39.3-1.1L343.5,13.8z M335.1,33.4H315.15v2.3H335.1V33.4z M335.1,44.3H315.15v2.45H335.1V44.3z
	 M335.1,38.9H315.15v2.35H335.1V38.9z M326.85,93.85c0,3.6-0.383,6.667-1.149,9.2c7.633,3.1,14.25,6.05,19.85,8.85l-3.5,5.6
	c-5.5-3.1-11.717-6.25-18.649-9.45c-3.267,4.567-9.317,7.75-18.15,9.55c-1.2-2.233-2.7-4.483-4.5-6.75
	c7.634-0.733,12.833-2.333,15.6-4.8c2.733-2.466,4.101-6.5,4.101-12.1v-1.3h6.399V93.85z M344.95,79.85h-18.8
	c-0.7,1.7-1.45,3.333-2.25,4.9H341.1v20.95h-6.3V90.15h-22.85v15.9h-6.3v-21.3h11.3c0.733-1.733,1.366-3.367,1.899-4.9H301.65V74.4
	h43.3V79.85z M347.8,74.95h43.75V80H372.3c-0.733,1.733-1.416,3.25-2.05,4.55h18.9v32.7h-5.75v-2.4H356.05v2.4h-5.75v-32.7H363
	c0.533-1.433,1.083-2.95,1.65-4.55H347.8V74.95z M356.05,89.55v20.3h4.05v-20.3H356.05z M365.8,93.25h7.65v-3.7h-7.65V93.25z
	 M365.8,97.8v3.7h7.65v-3.7H365.8z M379.2,89.55v20.3h4.2v-20.3H379.2z M401.7,107.35h6.45V99.6h-6.45V107.35z M373.45,109.85v-3.8
	h-7.65v3.8H373.45z M372.75,146.9v-3.1h-6.05v3.1H372.75z M378.15,146.9h11.8v13.35h-20.8c-0.634,1.067-1.267,2.067-1.9,3h24.9v4.8
	h-8.65c-1.6,2.067-3.467,3.934-5.6,5.6l12.1,3.1l-2.75,5.5c-5.533-1.967-10.634-3.667-15.3-5.1c-5.733,2.7-12.834,4.4-21.3,5.1
	c-0.467-1.733-1.15-3.517-2.051-5.35c6-0.267,11.117-0.917,15.351-1.95c-3.934-1.1-7.483-1.934-10.65-2.5
	c1.367-1.5,2.634-2.967,3.8-4.4h-9.8v-4.8h13.3c0.7-1.033,1.334-2.033,1.9-3h-12.95V146.9h11.65v-3.1h-13.15V139H391.4v4.8h-13.25
	V146.9z M326.2,144.05v2.5h10.75v-2.5H326.2z M361.2,151.55h-6v4.1h6V151.55z M362.25,170.2c2.467,0.4,5.566,1.033,9.3,1.9
	c2.066-1.167,3.75-2.517,5.05-4.05H363.9C363.3,168.783,362.75,169.5,362.25,170.2z M336.95,156.85H326.2v2.5h10.75V156.85z
	 M336.95,150.4H326.2v2.5h10.75V150.4z M334.4,168.2l4.899-3.15c2.167,2.633,4.434,5.534,6.8,8.7l-5.25,3.6
	c-0.866-1.434-1.85-2.934-2.949-4.5c-1.067,3.867-2.233,6.217-3.5,7.05c-1.267,0.867-2.817,1.3-4.65,1.3H318.4
	c-4.601,0-6.9-2.067-6.9-6.2v-8.6h6.05v7c0,1.667,0.834,2.5,2.5,2.5h7.05c1.034,0,1.884-0.15,2.551-0.45
	c0.633-0.333,1.033-0.85,1.199-1.55c0.2-0.733,0.5-2.05,0.9-3.95c2.267,1.033,4.2,1.867,5.8,2.5
	C336.583,171.05,335.533,169.633,334.4,168.2z M325.3,174c-2.133-2.467-4.233-4.733-6.3-6.8l3.6-3.1H320.4v-24.75H342.8v24.75H323.4
	c2.3,2.133,4.416,4.167,6.35,6.1L325.3,174z M378.15,151.55v4.1h6.05v-4.1H378.15z M372.75,155.65v-4.1h-6.05v4.1H372.75z
	 M393.45,175.8c3.833-5.4,6.267-10.45,7.3-15.15c1.033-4.767,1.533-12.417,1.5-22.95h6.35c0.067,6.2-0.083,11.5-0.449,15.9
	l8.55,9.55l-4.75,4.55c-1.601-2.1-3.2-4.167-4.8-6.2c-1.2,6.833-4.301,13.6-9.301,20.3
	C396.083,179.067,394.616,177.067,393.45,175.8z M464.85,137.6v12.55h16.75v6.45h-16.75v16.7h19.75v6.35H440.65v-6.35h16.85v-35.7
	H464.85z M426.55,137.7c0.066,5.8-0.066,10.75-0.399,14.85c2.333,11.067,6.533,19.333,12.6,24.8c-0.5,0.4-2.333,2.033-5.5,4.9
	c-3.7-3.5-6.816-9.233-9.35-17.2c-1.534,5.1-5.067,10.8-10.601,17.1c-1.366-1.367-3.133-2.85-5.3-4.45
	c1.134-1.167,3.017-3.55,5.65-7.15c2.633-3.566,4.383-7.583,5.25-12.05c0.933-4.467,1.366-11.4,1.3-20.8H426.55z M473,201.85v14.25
	h12.1v6.101H473v24.45h-6.8V222.2h-11.8V216.1h11.8v-14.25H473z M456.05,203.55c-1.1,3-2.267,5.934-3.5,8.8V246.7h-6.2v-22.65
	c-1.333,2.167-2.716,4.3-4.149,6.4c-0.566-2.5-1.3-5.351-2.2-8.55c3.833-6.134,7.033-12.884,9.6-20.25L456.05,203.55z M434.2,213.2
	H419.35v5.25h18.301v5.6H394.85v-5.6H412.9v-5.25H398.1V207.6H412.9v-5.5h6.449v5.5H434.2V213.2z M413.75,225.3h6.45v3.7h14.7v5.6
	h-14.7v5.15c5.899,0.066,12.083,0.017,18.55-0.15c-0.833,2.467-1.483,4.467-1.95,6c-6.434,0.067-13.283,0.017-20.55-0.149
	c-6.366,0-10.75-2.134-13.15-6.4c-1.566,3.233-3.466,5.934-5.699,8.101c-0.967-1.5-2.217-3.284-3.75-5.351
	c3.767-3.833,6.166-9.267,7.199-16.3l6.101,0.65c-0.4,2.267-0.851,4.333-1.351,6.199c1.667,3.801,4.384,6.134,8.15,7V225.3z
	 M482.35,296.3L450.45,345.4h37.399V298.85c0-4,0.134-8.533,0.4-13.6h-0.6c-0.467,1.167-1.084,2.7-1.851,4.6
	C485,291.783,483.85,293.934,482.35,296.3z M390.35,215.5c-3.6-0.9-6.916-1.95-9.949-3.15v0.601H359.6v-0.9
	c-2.866,1.267-6.166,2.5-9.899,3.7c-0.867-2.033-1.7-3.717-2.5-5.05c9.066-2.066,15.6-4.983,19.6-8.75h8.8l-1.55,1.25
	c4.634,3.267,10.767,5.649,18.4,7.149C391.917,211.217,391.217,212.934,390.35,215.5z M364.55,209.6h10.25
	c-1.666-1-3.383-2.1-5.149-3.3C367.884,207.634,366.184,208.733,364.55,209.6z M379.55,218.25h-19.6v2.25h19.6V218.25z M367.65,240
	H347.8v-3.75h19.95v-1.9h-16.7v-3.25h16.7V229.2c-5.267,0.033-10.934,0.05-17,0.05c-0.366-1.233-0.684-2.467-0.95-3.7
	c15.566,0.134,28.367-0.066,38.4-0.6l0.7,3.7c-4.534,0.199-9.517,0.35-14.95,0.449v2h14.55v3.25h-14.55v1.9h17.7V240h-17.7v0.2
	c-0.134,3.733-1.934,5.8-5.4,6.2c-1.833,0.1-4.899,0.149-9.2,0.149c-0.399-2.133-0.75-3.816-1.05-5.05
	c3.334,0.1,5.566,0.15,6.7,0.15C366.5,241.583,367.384,241.033,367.65,240z M385.3,223.95H354.15v-9.15H385.3V223.95z M366.05,253.3
	c32.634,0,48.95,24.134,48.95,72.4c0,23.767-4.434,42.116-13.3,55.05c-8.867,12.833-21.667,19.25-38.4,19.25
	c-33.333,0-50-23.667-50-71c0-24.533,4.533-43.283,13.601-56.25C335.934,259.783,348.983,253.3,366.05,253.3z M364.2,377.35
	c13.733,0,20.6-16.866,20.6-50.6c0-33.8-6.684-50.7-20.05-50.7c-14.3,0-21.45,17.4-21.45,52.2
	C343.3,360.983,350.267,377.35,364.2,377.35z M425.5,347.75l59.9-92h29.5v89.65H532.1V366.6H514.9v30.95H487.85V366.6H425.5V347.75z
	 M524.95,214.3c-7.634,8.601-15.601,16.601-23.9,24l18.65-1.05c-1.8-2.667-3.617-5.267-5.45-7.8l5.25-3.45
	c4.467,5.434,8.6,11.05,12.4,16.85l-6.351,3.851l-2.1-3.5l-22.5,1.3c-3.233,0.167-6.134,0.6-8.7,1.3l-3.1-6.649
	c7.066-3.667,16.75-13.417,29.05-29.25L524.95,214.3z M513.05,205.8c-6.133,7.634-12.916,14.334-20.35,20.101
	c-1.4-1.7-3.15-3.5-5.25-5.4c7.333-5.267,13.666-11.517,19-18.75L513.05,205.8z M298.35,18.95l-2.05,7.9l-6-1.1l1.7-6.45h-14.95
	c-1.6,3.434-3.3,6.45-5.1,9.05c-1.233-1.1-2.833-2.4-4.8-3.9c3-4.4,5.467-9.784,7.4-16.15L281,9.15
	c-0.533,1.567-1.083,3.083-1.65,4.55h19V18.95z M299.4,43.7l-6.301,2c-1.533-6.2-3.05-11.534-4.55-16l5.601-1.45
	C295.483,31.517,297.233,36.667,299.4,43.7z M286.95,45.95c0,1.767-0.384,3.15-1.15,4.15c-0.733,0.967-1.967,1.5-3.7,1.6
	c-1.699,0.2-4.066,0.267-7.1,0.2c-0.233-1.8-0.617-3.75-1.15-5.85c1.5,0.167,2.766,0.25,3.8,0.25c1.133,0,1.899-0.15,2.3-0.45
	c0.399-0.333,0.6-0.9,0.6-1.7v-22.1h6.4V45.95z M269.3,10c-1.033,3.467-2.233,6.833-3.6,10.1v32.15h-6.1V32.2
	c-1.033,1.767-2.15,3.55-3.35,5.35l-1.9-8.8c3.667-6,6.667-12.883,9-20.65L269.3,10z M267.05,42.8c2.067-4.367,4-9.383,5.8-15.05
	l5.75,1.55c-1.6,5.7-3.517,11.05-5.75,16.05C271.05,44.483,269.117,43.633,267.05,42.8z M169.95,96.2
	c-2.2,5.5-5.417,11.566-9.65,18.2L70.25,252.95H175.7v-131.4c0-11.2,0.383-23.966,1.15-38.3h-1.7
	C173.883,86.55,172.15,90.867,169.95,96.2z M298.35,148.3l-2.05,7.9l-6-1.15l1.7-6.45h-14.95c-1.6,3.467-3.3,6.483-5.1,9.05
	c-1.233-1.1-2.833-2.383-4.8-3.85c3-4.433,5.467-9.833,7.4-16.2l6.45,0.85c-0.533,1.566-1.083,3.1-1.65,4.6h19V148.3z M313.65,143.1
	h5.6v5.6h-5.6v2.25c2.199,1.267,4.183,2.5,5.949,3.7l-2.649,4.95l-3.3-2.9v8.5h-5.75v-8.6c-1.434,2.367-3.067,4.783-4.9,7.25
	c-0.667-2.6-1.35-4.817-2.05-6.65c2.566-2.633,4.75-5.467,6.55-8.5h-5.7v-5.6h6.101v-5.15h5.75V143.1z M269.3,139.35
	c-1.033,3.433-2.233,6.783-3.6,10.05v32.15h-6.1V161.5c-1.033,1.8-2.15,3.583-3.35,5.35l-1.9-8.75c3.667-6.033,6.667-12.917,9-20.65
	L269.3,139.35z M278.6,158.6c-1.6,5.733-3.517,11.083-5.75,16.05c-1.8-0.833-3.733-1.683-5.8-2.55c2.067-4.367,4-9.383,5.8-15.05
	L278.6,158.6z M280.55,173.45v-22.1h6.4v23.9c0,1.8-0.384,3.183-1.15,4.15c-0.733,0.967-1.967,1.517-3.7,1.65
	c-1.699,0.167-4.066,0.217-7.1,0.15c-0.233-1.767-0.617-3.717-1.15-5.85c1.5,0.167,2.766,0.25,3.8,0.25c1.133,0,1.899-0.133,2.3-0.4
	C280.35,174.833,280.55,174.25,280.55,173.45z M310.6,167.8c-1.566,4.4-2.983,8.034-4.25,10.9l-5.649-2.05
	c1.666-3.367,3.066-6.917,4.2-10.65L310.6,167.8z M299.4,173.05L293.1,175c-1.533-6.167-3.05-11.5-4.55-16l5.601-1.45
	C295.483,160.817,297.233,165.983,299.4,173.05z M252,0.1v252.85h48.5v59.75H252V400h-76.3v-87.3H0v-53.15L168.85,0.1H252z
	 M73.75,328.85v23.95h4.05c1.934,0,3.5-1.2,4.7-3.6c1.167-2.4,1.75-5.417,1.75-9.05c0-7.534-2.1-11.301-6.3-11.301H73.75z
	 M42.15,328.85h-4.2v23.95H42c1.933,0,3.5-1.2,4.7-3.6c1.167-2.4,1.75-5.417,1.75-9.05C48.45,332.616,46.35,328.85,42.15,328.85z
	 M57.1,337.95c0,5.666-0.767,10.517-2.3,14.55c-1.533,4.066-3.65,6.917-6.35,8.55v0.15c1.767,1.3,3.733,5.533,5.9,12.7l7.35,24.649
	h-9.5L46.1,376.9c-1.267-4.467-2.3-7.351-3.1-8.65c-0.8-1.267-1.65-1.9-2.55-1.9h-2.5v32.2H29.7V315.4h13.6
	C52.5,315.4,57.1,322.917,57.1,337.95z M79.1,315.4c9.2,0,13.8,7.517,13.8,22.55c0,5.666-0.767,10.517-2.3,14.55
	c-1.533,4.066-3.65,6.917-6.35,8.55v0.15c1.767,1.3,3.733,5.533,5.9,12.7l7.35,24.649H88L81.9,376.9
	c-1.267-4.467-2.3-7.351-3.1-8.65c-0.8-1.267-1.65-1.9-2.55-1.9h-2.5v32.2H65.5V315.4H79.1z M22.45,315.4v14.5H8.65v19.6h12.8v14.4
	H8.65v20.149h14.7v14.5H0.4V315.4H22.45z M150.9,328.85v23.95h4.05c1.933,0,3.5-1.2,4.7-3.6c1.167-2.4,1.75-5.417,1.75-9.05
	c0-7.534-2.1-11.301-6.3-11.301H150.9z M156.25,315.4c9.2,0,13.8,7.517,13.8,22.55c0,5.666-0.767,10.517-2.3,14.55
	c-1.533,4.066-3.65,6.917-6.35,8.55v0.15c1.767,1.3,3.733,5.533,5.9,12.7l7.35,24.649h-9.5l-6.1-21.649
	c-1.267-4.467-2.3-7.351-3.1-8.65c-0.8-1.267-1.65-1.9-2.55-1.9h-2.5v32.2h-8.25V315.4H156.25z M109.75,337.1
	c-1.867,5.167-2.8,11.834-2.8,20c0,8.067,0.917,14.684,2.75,19.851c1.833,5.1,4.333,7.649,7.5,7.649c3.233,0,5.75-2.433,7.55-7.3
	c1.8-4.967,2.7-11.583,2.7-19.85c0-8.667-0.883-15.5-2.65-20.5c-1.767-5.033-4.233-7.55-7.4-7.55
	C114.167,329.4,111.617,331.967,109.75,337.1z M117.65,314c5.533,0,10,3.967,13.4,11.9c3.367,7.899,5.05,18.05,5.05,30.449
	c0,12.967-1.75,23.483-5.25,31.551c-3.533,8.033-8.15,12.05-13.85,12.05c-5.533,0-10.033-3.884-13.5-11.65
	c-3.467-7.833-5.2-17.916-5.2-30.25c0-13,1.767-23.583,5.3-31.75C107.133,318.1,111.817,314,117.65,314z"/>
</svg>
